<svg id="visual" viewBox="0 0 900 600" width="900" height="600" xmlns="http://www.w3.org/2000/svg" xmlns:xlink="http://www.w3.org/1999/xlink" version="1.1"><rect x="0" y="0" width="900" height="600" fill="#01084f"></rect><g transform="translate(399.47973702920694 306.96704152622806)"><path d="M110.5 -197.4C131.3 -137 128.1 -88.8 188.9 -30.9C249.7 27 374.5 94.6 401.1 166.7C427.7 238.7 356.1 315.1 272.9 314.6C189.7 314 94.8 236.5 11 221.4C-72.9 206.3 -145.8 253.6 -186.5 240.4C-227.2 227.1 -235.8 153.3 -259 83.7C-282.1 14.2 -319.9 -51 -300.2 -93.2C-280.5 -135.4 -203.4 -154.7 -143.8 -202.5C-84.2 -250.3 -42.1 -326.6 1.4 -328.5C44.9 -330.4 89.7 -257.8 110.5 -197.4" fill="#BB004B"></path></g></svg>